# xmcd
# Track frame offsets:
# 150
# 12162
# 24180
# 38337
# 49735
# 62314
# 73922
# 87004
# 98883
# 111109
# 125304
# 139208
# 149455
# 161390
# 173907
#
# Disc length: 2485 seconds
# Revision: 0
# Processed by: cddbd v1.5.1PL0 Copyright (c) Steve Scherf et al.
# Submitted via: VisiTrax 2.9.10.228 - For more info visit www.synapsa.com
#
DISCID=ba09b30f
DTITLE=Smith, Connie - CB90088
DYEAR=1900
DGENRE=Karaoke
TTITLE0=Ain't Had No Lovin'
TTITLE1=Cincinnati, Ohio
TTITLE2=Hurtin's All Over, The
TTITLE3=If It Ain't Love (Let's Leave It Alone)
TTITLE4=Just One Time
TTITLE5=Once A Day
TTITLE6=Ribbon Of Darkness
TTITLE7=Then And Only Then
TTITLE8=If I Talk To Him
TTITLE9=I Never Once Stopped Loving You
TTITLE10=You And Your Sweet Love
TTITLE11=I'll Come Runnin'
TTITLE12=Burning A Hole In My Mind
TTITLE13=Run Away Little Tears
TTITLE14=Nobody But A Fool Would Love You
EXTD=
EXTT0=
EXTT1=
EXTT2=
EXTT3=
EXTT4=
EXTT5=
EXTT6=
EXTT7=
EXTT8=
EXTT9=
EXTT10=
EXTT11=
EXTT12=
EXTT13=
EXTT14=
PLAYORDER=
